<mxfile host="65bd71144e">
    <diagram id="5WonQ6q1RFziKuyifRWz" name="Page-1">
        <mxGraphModel dx="1787" dy="938" grid="1" gridSize="10" guides="1" tooltips="1" connect="1" arrows="1" fold="1" page="0" pageScale="1" pageWidth="1100" pageHeight="850" background="none" math="0" shadow="0">
            <root>
                <mxCell id="0"/>
                <mxCell id="1" parent="0"/>
                <mxCell id="node5" value="&lt;p style=&quot;margin:0px;margin-top:4px;text-align:center;&quot;&gt;&lt;b&gt;AssetSetter&lt;/b&gt;&lt;/p&gt;&lt;hr size=&quot;1&quot;&gt;&lt;p style=&quot;margin:0 0 0 4px;line-height:1.6;&quot;&gt;&lt;/p&gt;&lt;p style=&quot;margin:0 0 0 4px;line-height:1.6;&quot;&gt;- s: String&lt;br&gt;- mapTilenum: int[][]&lt;br&gt;- gp: GameEngine&lt;/p&gt;&lt;hr size=&quot;1&quot;&gt;&lt;p style=&quot;margin:0 0 0 4px;line-height:1.6;&quot;&gt;+ setMonster(): void&lt;br&gt;+ setObject(): void&lt;/p&gt;" style="verticalAlign=top;align=left;overflow=fill;fontSize=14;fontFamily=Helvetica;html=1;rounded=0;shadow=0;comic=0;labelBackgroundColor=none;strokeWidth=1;" parent="1" vertex="1">
                    <mxGeometry x="1100" y="860" width="261" height="180" as="geometry"/>
                </mxCell>
                <mxCell id="node13" value="&lt;p style=&quot;margin:0px;margin-top:4px;text-align:center;&quot;&gt;&lt;b&gt;CollisionChecker&lt;/b&gt;&lt;/p&gt;&lt;hr size=&quot;1&quot;&gt;&lt;p style=&quot;margin:0 0 0 4px;line-height:1.6;&quot;&gt;&lt;/p&gt;&lt;p style=&quot;margin:0 0 0 4px;line-height:1.6;&quot;&gt;~ gp: GameEngine&lt;/p&gt;&lt;hr size=&quot;1&quot;&gt;&lt;p style=&quot;margin:0 0 0 4px;line-height:1.6;&quot;&gt;+ checkPW(Entity, boolean): int&lt;br&gt;+ checkPlayer(Entity): boolean&lt;br&gt;+ checkCollisionWithWalls(Entity, String): boolean&lt;br&gt;+ checktile(Entity): void&lt;br&gt;+ checkObject(Entity, boolean): int&lt;br&gt;+ checkEntity(Entity, Entity[]): int&lt;/p&gt;" style="verticalAlign=top;align=left;overflow=fill;fontSize=14;fontFamily=Helvetica;html=1;rounded=0;shadow=0;comic=0;labelBackgroundColor=none;strokeWidth=1;" parent="1" vertex="1">
                    <mxGeometry x="99" y="850" width="342" height="230" as="geometry"/>
                </mxCell>
                <mxCell id="node18" value="&lt;p style=&quot;margin:0px;margin-top:4px;text-align:center;&quot;&gt;&lt;b&gt;Entity&lt;/b&gt;&lt;/p&gt;&lt;hr size=&quot;1&quot;&gt;&lt;p style=&quot;margin:0 0 0 4px;line-height:1.6;&quot;&gt;&lt;/p&gt;&lt;p style=&quot;margin:0 0 0 4px;line-height:1.6;&quot;&gt;+ attacking: boolean&lt;br&gt;+ left: Image&lt;br&gt;+ right: Image&lt;br&gt;+ logo: Image&lt;br&gt;+ down2: Image&lt;br&gt;+ solidArea: Rectangle&lt;br&gt;+ solidAreaDefaulty: int&lt;br&gt;- GU: gestoreUccisoni&lt;br&gt;+ speed: int&lt;br&gt;+ collision: boolean&lt;br&gt;~ type: int&lt;br&gt;+ imageFantasma_vunerabile: Image&lt;br&gt;+ up2: Image&lt;br&gt;~ maxLife: int&lt;br&gt;~ attackArea: Rectangle&lt;br&gt;+ life: int&lt;br&gt;~ actionlockCounter: int&lt;br&gt;+ solidAreaDefaultx: int&lt;br&gt;+ direction: String&lt;br&gt;~ name: String&lt;br&gt;~ gp: GameEngine&lt;br&gt;+ y: int&lt;br&gt;+ up1: Image&lt;br&gt;+ x: int&lt;br&gt;+ imageGhost: Image&lt;br&gt;~ invincibleCounter: int&lt;br&gt;+ invincible: boolean&lt;br&gt;+ down1: Image&lt;br&gt;+ collisionON: boolean&lt;/p&gt;&lt;hr size=&quot;1&quot;&gt;&lt;p style=&quot;margin:0 0 0 4px;line-height:1.6;&quot;&gt;+ update(): void&lt;br&gt;+ draw(Graphics2D): void&lt;br&gt;~ restartVita(): void&lt;br&gt;+ setAction(): void&lt;br&gt;+ drawFantasmaVulnerabile(Graphics2D): void&lt;/p&gt;" style="verticalAlign=top;align=left;overflow=fill;fontSize=14;fontFamily=Helvetica;html=1;rounded=0;shadow=0;comic=0;labelBackgroundColor=none;strokeWidth=1;" parent="1" vertex="1">
                    <mxGeometry x="1470" y="280" width="321" height="838" as="geometry"/>
                </mxCell>
                <mxCell id="node25" value="&lt;p style=&quot;margin:0px;margin-top:4px;text-align:center;&quot;&gt;&lt;b&gt;EventHandler&lt;/b&gt;&lt;/p&gt;&lt;hr size=&quot;1&quot;&gt;&lt;p style=&quot;margin:0 0 0 4px;line-height:1.6;&quot;&gt;&lt;/p&gt;&lt;p style=&quot;margin:0 0 0 4px;line-height:1.6;&quot;&gt;- gp: GameEngine&lt;br&gt;- eventRect: Rectangle&lt;br&gt;- eventRectDefaultX: int&lt;br&gt;- eventRectDefaultY: int&lt;/p&gt;&lt;hr size=&quot;1&quot;&gt;&lt;p style=&quot;margin:0 0 0 4px;line-height:1.6;&quot;&gt;+ checkEvent(Entity): void&lt;br&gt;- tunnelsx(Entity): void&lt;br&gt;- hit(double, int, Entity): boolean&lt;br&gt;- tunneldx(Entity): void&lt;/p&gt;" style="verticalAlign=top;align=left;overflow=fill;fontSize=14;fontFamily=Helvetica;html=1;rounded=0;shadow=0;comic=0;labelBackgroundColor=none;strokeWidth=1;" parent="1" vertex="1">
                    <mxGeometry x="671" y="850" width="239" height="240" as="geometry"/>
                </mxCell>
                <mxCell id="node20" value="&lt;p style=&quot;margin:0px;margin-top:4px;text-align:center;&quot;&gt;&lt;b&gt;GameEngine&lt;/b&gt;&lt;/p&gt;&lt;hr size=&quot;1&quot;&gt;&lt;p style=&quot;margin:0 0 0 4px;line-height:1.6;&quot;&gt;&lt;/p&gt;&lt;p style=&quot;margin:0 0 0 4px;line-height:1.6;&quot;&gt;+ GRI: gestoreRipristinoImmunita&lt;br&gt;+ ghost: Entity[]&lt;br&gt;+ pw: GameObject[]&lt;br&gt;+ livelloMax: int&lt;br&gt;+ maxScreenCol: int&lt;br&gt;+ screenHeight: int&lt;br&gt;- originalTitleSize: int&lt;br&gt;+ player: Player&lt;br&gt;~ se: Sound&lt;br&gt;- keyH: InputManager&lt;br&gt;+ eHandler: EventHandler&lt;br&gt;+ aSetter: AssetSetter&lt;br&gt;+ maxScreenRow: int&lt;br&gt;+ screenWidth: int&lt;br&gt;- FPS: int&lt;br&gt;+ titleSize: int&lt;br&gt;- serialVersionUID: long&lt;br&gt;- scale: int&lt;br&gt;- gameThread: Thread&lt;br&gt;+ tileM: Tilemanger&lt;br&gt;~ ui: UI&lt;br&gt;+ endState: int&lt;br&gt;+ playState: int&lt;br&gt;+ cCheck: CollisionChecker&lt;br&gt;+ obj: GameObject[]&lt;br&gt;+ gameState: int&lt;br&gt;+ nextLevelState: int&lt;br&gt;~ sound: Sound&lt;br&gt;+ titleState: int&lt;br&gt;+ pauseState: int&lt;br&gt;+ livelloCorrente: int&lt;/p&gt;&lt;hr size=&quot;1&quot;&gt;&lt;p style=&quot;margin:0 0 0 4px;line-height:1.6;&quot;&gt;+ StartGameThread(): void&lt;br&gt;+ setupGame(): void&lt;br&gt;+ stopMusic(int): void&lt;br&gt;+ killMonster(int): void&lt;br&gt;+ run(): void&lt;br&gt;+ playSE(int): void&lt;br&gt;- update(): void&lt;br&gt;~ restart(): void&lt;br&gt;+ paintComponent(Graphics): void&lt;br&gt;~ nextLevel(): void&lt;/p&gt;" style="verticalAlign=top;align=left;overflow=fill;fontSize=14;fontFamily=Helvetica;html=1;rounded=0;shadow=0;comic=0;labelBackgroundColor=none;strokeWidth=1;" parent="1" vertex="1">
                    <mxGeometry x="227" y="1870" width="247" height="1012" as="geometry"/>
                </mxCell>
                <mxCell id="node12" value="&lt;p style=&quot;margin:0px;margin-top:4px;text-align:center;&quot;&gt;&lt;b&gt;GameObject&lt;/b&gt;&lt;/p&gt;&lt;hr size=&quot;1&quot;&gt;&lt;p style=&quot;margin:0 0 0 4px;line-height:1.6;&quot;&gt;&lt;/p&gt;&lt;p style=&quot;margin:0 0 0 4px;line-height:1.6;&quot;&gt;+ imageVita: BufferedImage&lt;br&gt;+ solidAreaDefaulty: int&lt;br&gt;+ y: int&lt;br&gt;+ imagecfu: BufferedImage&lt;br&gt;+ powerUp: BufferedImage&lt;br&gt;+ name: String&lt;br&gt;+ collision: boolean&lt;br&gt;+ solidAreaDefaultx: int&lt;br&gt;+ solidArea: Rectangle&lt;br&gt;+ x: int&lt;/p&gt;&lt;hr size=&quot;1&quot;&gt;&lt;p style=&quot;margin:0 0 0 4px;line-height:1.6;&quot;&gt;+ drawPW(Graphics2D, GameEngine): void&lt;br&gt;+ drawCFU(Graphics2D, GameEngine): void&lt;/p&gt;" style="verticalAlign=top;align=left;overflow=fill;fontSize=14;fontFamily=Helvetica;html=1;rounded=0;shadow=0;comic=0;labelBackgroundColor=none;strokeWidth=1;" parent="1" vertex="1">
                    <mxGeometry x="1056" y="1930" width="305" height="334" as="geometry"/>
                </mxCell>
                <mxCell id="node14" value="&lt;p style=&quot;margin:0px;margin-top:4px;text-align:center;&quot;&gt;&lt;b&gt;Ghost&lt;/b&gt;&lt;/p&gt;&lt;hr size=&quot;1&quot;&gt;&lt;p style=&quot;margin:0 0 0 4px;line-height:1.6;&quot;&gt;&lt;/p&gt;&lt;p style=&quot;margin:0 0 0 4px;line-height:1.6;&quot;&gt;- ultimoMovimentoOpposto: String&lt;br&gt;- gp: GameEngine&lt;/p&gt;&lt;hr size=&quot;1&quot;&gt;&lt;p style=&quot;margin:0 0 0 4px;line-height:1.6;&quot;&gt;- getImage(int): void&lt;br&gt;- chasePlayer(): void&lt;br&gt;- isInCage(): boolean&lt;br&gt;- fantasmaVulnerabile(): void&lt;br&gt;+ setAction(): void&lt;br&gt;+ getType(): int&lt;br&gt;- randomMovement(): void&lt;/p&gt;" style="verticalAlign=top;align=left;overflow=fill;fontSize=14;fontFamily=Helvetica;html=1;rounded=0;shadow=0;comic=0;labelBackgroundColor=none;strokeWidth=1;" parent="1" vertex="1">
                    <mxGeometry x="580" y="2650" width="251" height="265" as="geometry"/>
                </mxCell>
                <mxCell id="node17" value="&lt;p style=&quot;margin:0px;margin-top:4px;text-align:center;&quot;&gt;&lt;b&gt;InputManager&lt;/b&gt;&lt;/p&gt;&lt;hr size=&quot;1&quot;&gt;&lt;p style=&quot;margin:0 0 0 4px;line-height:1.6;&quot;&gt;&lt;/p&gt;&lt;p style=&quot;margin:0 0 0 4px;line-height:1.6;&quot;&gt;+ rightPressed: boolean&lt;br&gt;+ upPressed: boolean&lt;br&gt;+ spacePressed: boolean&lt;br&gt;- gp: GameEngine&lt;br&gt;+ downPressed: boolean&lt;br&gt;+ leftPressed: boolean&lt;/p&gt;&lt;hr size=&quot;1&quot;&gt;&lt;p style=&quot;margin:0 0 0 4px;line-height:1.6;&quot;&gt;+ keyPressed(KeyEvent): void&lt;br&gt;+ keyReleased(KeyEvent): void&lt;br&gt;+ keyTyped(KeyEvent): void&lt;/p&gt;" style="verticalAlign=top;align=left;overflow=fill;fontSize=14;fontFamily=Helvetica;html=1;rounded=0;shadow=0;comic=0;labelBackgroundColor=none;strokeWidth=1;" parent="1" vertex="1">
                    <mxGeometry x="-60" y="2430" width="228" height="280" as="geometry"/>
                </mxCell>
                <mxCell id="node23" value="&lt;p style=&quot;margin:0px;margin-top:4px;text-align:center;&quot;&gt;&lt;b&gt;ObjCFU&lt;/b&gt;&lt;/p&gt;&lt;hr size=&quot;1&quot;&gt;&lt;p style=&quot;margin:0 0 0 4px;line-height:1.6;&quot;&gt;&lt;br&gt;&lt;/p&gt;" style="verticalAlign=top;align=left;overflow=fill;fontSize=14;fontFamily=Helvetica;html=1;rounded=0;shadow=0;comic=0;labelBackgroundColor=none;strokeWidth=1;" parent="1" vertex="1">
                    <mxGeometry x="1450" y="1980" width="112" height="68" as="geometry"/>
                </mxCell>
                <mxCell id="node15" value="&lt;p style=&quot;margin:0px;margin-top:4px;text-align:center;&quot;&gt;&lt;b&gt;Obstacole&lt;/b&gt;&lt;/p&gt;&lt;hr size=&quot;1&quot;&gt;&lt;p style=&quot;margin:0 0 0 4px;line-height:1.6;&quot;&gt;&lt;/p&gt;&lt;p style=&quot;margin:0 0 0 4px;line-height:1.6;&quot;&gt;+ image: BufferedImage&lt;br&gt;+ collision: boolean&lt;/p&gt;" style="verticalAlign=top;align=left;overflow=fill;fontSize=14;fontFamily=Helvetica;html=1;rounded=0;shadow=0;comic=0;labelBackgroundColor=none;strokeWidth=1;" parent="1" vertex="1">
                    <mxGeometry x="919" y="670" width="181" height="92" as="geometry"/>
                </mxCell>
                <mxCell id="node2" value="&lt;p style=&quot;margin:0px;margin-top:4px;text-align:center;&quot;&gt;&lt;b&gt;Player&lt;/b&gt;&lt;/p&gt;&lt;hr size=&quot;1&quot;&gt;&lt;p style=&quot;margin:0 0 0 4px;line-height:1.6;&quot;&gt;&lt;/p&gt;&lt;p style=&quot;margin:0 0 0 4px;line-height:1.6;&quot;&gt;- powerUpTimer: Timer&lt;br&gt;- keyH: InputManager&lt;br&gt;- GU: gestoreUccisoni&lt;br&gt;+ punteggio: int&lt;br&gt;~ hashKey: int&lt;br&gt;+ pallini_totali: int&lt;/p&gt;&lt;hr size=&quot;1&quot;&gt;&lt;p style=&quot;margin:0 0 0 4px;line-height:1.6;&quot;&gt;- getPlayerImage(): void&lt;br&gt;- mangiaPW(int): void&lt;br&gt;+ draw(Graphics2D): void&lt;br&gt;+ setDefaultLife(): void&lt;br&gt;+ update(): void&lt;br&gt;+ setDefaultValue(): void&lt;br&gt;- reset(): void&lt;br&gt;+ countLife(): int&lt;br&gt;- mangiaPalline(int): void&lt;br&gt;- interazioneFanstasma(int): void&lt;/p&gt;" style="verticalAlign=top;align=left;overflow=fill;fontSize=14;fontFamily=Helvetica;html=1;rounded=0;shadow=0;comic=0;labelBackgroundColor=none;strokeWidth=1;" parent="1" vertex="1">
                    <mxGeometry x="220" y="3070" width="274" height="429" as="geometry"/>
                </mxCell>
                <mxCell id="node0" value="&lt;p style=&quot;margin:0px;margin-top:4px;text-align:center;&quot;&gt;&lt;b&gt;PowerUp&lt;/b&gt;&lt;/p&gt;&lt;hr size=&quot;1&quot;&gt;&lt;p style=&quot;margin:0 0 0 4px;line-height:1.6;&quot;&gt;&lt;br&gt;&lt;/p&gt;" style="verticalAlign=top;align=left;overflow=fill;fontSize=14;fontFamily=Helvetica;html=1;rounded=0;shadow=0;comic=0;labelBackgroundColor=none;strokeWidth=1;" parent="1" vertex="1">
                    <mxGeometry x="1510" y="2063" width="122" height="68" as="geometry"/>
                </mxCell>
                <mxCell id="node19" value="&lt;p style=&quot;margin:0px;margin-top:4px;text-align:center;&quot;&gt;&lt;b&gt;Sound&lt;/b&gt;&lt;/p&gt;&lt;hr size=&quot;1&quot;&gt;&lt;p style=&quot;margin:0 0 0 4px;line-height:1.6;&quot;&gt;&lt;/p&gt;&lt;p style=&quot;margin:0 0 0 4px;line-height:1.6;&quot;&gt;- clip: Clip&lt;br&gt;- isPlaying: boolean&lt;br&gt;- soundURL: URL[]&lt;/p&gt;&lt;hr size=&quot;1&quot;&gt;&lt;p style=&quot;margin:0 0 0 4px;line-height:1.6;&quot;&gt;+ isPlaying(): boolean&lt;br&gt;+ play(): void&lt;br&gt;+ stop(): void&lt;br&gt;+ setFile(int): void&lt;br&gt;+ playWin(): void&lt;/p&gt;" style="verticalAlign=top;align=left;overflow=fill;fontSize=14;fontFamily=Helvetica;html=1;rounded=0;shadow=0;comic=0;labelBackgroundColor=none;strokeWidth=1;" parent="1" vertex="1">
                    <mxGeometry x="1327" y="1300" width="166" height="246" as="geometry"/>
                </mxCell>
                <mxCell id="node11" value="&lt;p style=&quot;margin:0px;margin-top:4px;text-align:center;&quot;&gt;&lt;b&gt;Tilemanger&lt;/b&gt;&lt;/p&gt;&lt;hr size=&quot;1&quot;&gt;&lt;p style=&quot;margin:0 0 0 4px;line-height:1.6;&quot;&gt;&lt;/p&gt;&lt;p style=&quot;margin:0 0 0 4px;line-height:1.6;&quot;&gt;- conteggio: int&lt;br&gt;- gp: GameEngine&lt;br&gt;+ tile: Obstacole[]&lt;br&gt;+ mapTilenum: int[][]&lt;/p&gt;&lt;hr size=&quot;1&quot;&gt;&lt;p style=&quot;margin:0 0 0 4px;line-height:1.6;&quot;&gt;- getTileImage(): void&lt;br&gt;~ draw(Graphics): void&lt;br&gt;- loadMap(String): void&lt;br&gt;~ resetPalliniTotali(): void&lt;br&gt;+ getMap(int, int): int&lt;br&gt;+ getPalliniTotali(): int&lt;/p&gt;" style="verticalAlign=top;align=left;overflow=fill;fontSize=14;fontFamily=Helvetica;html=1;rounded=0;shadow=0;comic=0;labelBackgroundColor=none;strokeWidth=1;" parent="1" vertex="1">
                    <mxGeometry x="883" y="1280" width="255" height="290" as="geometry"/>
                </mxCell>
                <mxCell id="node22" value="&lt;p style=&quot;margin:0px;margin-top:4px;text-align:center;&quot;&gt;&lt;b&gt;UI&lt;/b&gt;&lt;/p&gt;&lt;hr size=&quot;1&quot;&gt;&lt;p style=&quot;margin:0 0 0 4px;line-height:1.6;&quot;&gt;&lt;/p&gt;&lt;p style=&quot;margin:0 0 0 4px;line-height:1.6;&quot;&gt;- f_30: Font&lt;/p&gt;&lt;p style=&quot;margin:0 0 0 4px;line-height:1.6;&quot;&gt;- f_35: Font&lt;br style=&quot;border-color: var(--border-color);&quot;&gt;- f_60: Font&lt;/p&gt;&lt;p style=&quot;margin:0 0 0 4px;line-height:1.6;&quot;&gt;- f_50: Font&lt;/p&gt;&lt;p style=&quot;margin:0 0 0 4px;line-height:1.6;&quot;&gt;- f_40: Font&lt;br style=&quot;border-color: var(--border-color);&quot;&gt;- g2: Graphics2D&lt;br&gt;+ coommandNum: int&lt;br&gt;~ keyH: InputManager&lt;br&gt;+ commandNum: int&lt;br&gt;- pacLife: BufferedImage&lt;br&gt;+ gp: GameEngine&lt;br&gt;&lt;/p&gt;&lt;hr size=&quot;1&quot;&gt;&lt;p style=&quot;margin:0 0 0 4px;line-height:1.6;&quot;&gt;+ draw(Graphics2D): void&lt;br&gt;- drawSecondLevelScreen(): void&lt;br&gt;- drawPlayerLife(): void&lt;br&gt;- drawPauseScreen(): void&lt;br&gt;- getXforCentered(String): int&lt;br&gt;- drawFirstLevelScreen(): void&lt;br&gt;- drawEndScreen(): void&lt;br&gt;- drawTitleScreen(): void&lt;br&gt;+ drawContaPallini(Graphics2D): void&lt;/p&gt;" style="verticalAlign=top;align=left;overflow=fill;fontSize=14;fontFamily=Helvetica;html=1;rounded=0;shadow=0;comic=0;labelBackgroundColor=none;strokeWidth=1;" parent="1" vertex="1">
                    <mxGeometry x="-101" y="1170" width="263" height="520" as="geometry"/>
                </mxCell>
                <mxCell id="node7" value="&lt;p style=&quot;margin:0px;margin-top:4px;text-align:center;&quot;&gt;&lt;b&gt;gestoreRipristinoImmunita&lt;/b&gt;&lt;/p&gt;&lt;hr size=&quot;1&quot;&gt;&lt;p style=&quot;margin:0 0 0 4px;line-height:1.6;&quot;&gt;&lt;/p&gt;&lt;p style=&quot;margin:0 0 0 4px;line-height:1.6;&quot;&gt;~ gp: GameEngine&lt;br&gt;~ i: int&lt;/p&gt;&lt;hr size=&quot;1&quot;&gt;&lt;p style=&quot;margin:0 0 0 4px;line-height:1.6;&quot;&gt;+ run(): void&lt;/p&gt;" style="verticalAlign=top;align=left;overflow=fill;fontSize=14;fontFamily=Helvetica;html=1;rounded=0;shadow=0;comic=0;labelBackgroundColor=none;strokeWidth=1;" parent="1" vertex="1">
                    <mxGeometry x="310" y="1390" width="328" height="127" as="geometry"/>
                </mxCell>
                <mxCell id="node21" value="&lt;p style=&quot;margin:0px;margin-top:4px;text-align:center;&quot;&gt;&lt;b&gt;gestoreUccisoni&lt;/b&gt;&lt;/p&gt;&lt;hr size=&quot;1&quot;&gt;&lt;p style=&quot;margin:0 0 0 4px;line-height:1.6;&quot;&gt;&lt;/p&gt;&lt;p style=&quot;margin:0 0 0 4px;line-height:1.6;&quot;&gt;~ gp: GameEngine&lt;br&gt;~ index: int&lt;/p&gt;&lt;hr size=&quot;1&quot;&gt;&lt;p style=&quot;margin:0 0 0 4px;line-height:1.6;&quot;&gt;+ run(): void&lt;/p&gt;" style="verticalAlign=top;align=left;overflow=fill;fontSize=14;fontFamily=Helvetica;html=1;rounded=0;shadow=0;comic=0;labelBackgroundColor=none;strokeWidth=1;" parent="1" vertex="1">
                    <mxGeometry x="-105" y="630" width="267" height="127" as="geometry"/>
                </mxCell>
                <mxCell id="node6" value="&lt;p style=&quot;margin:0px;margin-top:4px;text-align:center;&quot;&gt;&lt;b&gt;vitaPacMan&lt;/b&gt;&lt;/p&gt;&lt;hr size=&quot;1&quot;&gt;&lt;p style=&quot;margin:0 0 0 4px;line-height:1.6;&quot;&gt;&lt;/p&gt;&lt;p style=&quot;margin:0 0 0 4px;line-height:1.6;&quot;&gt;~ gp: GameEngine&lt;/p&gt;" style="verticalAlign=top;align=left;overflow=fill;fontSize=14;fontFamily=Helvetica;html=1;rounded=0;shadow=0;comic=0;labelBackgroundColor=none;strokeWidth=1;" parent="1" vertex="1">
                    <mxGeometry x="1180" y="2930" width="212" height="68" as="geometry"/>
                </mxCell>
                <mxCell id="edge7" value="" style="html=1;rounded=1;edgeStyle=orthogonalEdgeStyle;dashed=0;startArrow=diamondThinstartSize=12;endArrow=none;endSize=12;strokeColor=#595959;exitX=0.250;exitY=1.000;exitDx=0;exitDy=0;entryX=0.685;entryY=0;entryDx=0;entryDy=0;entryPerimeter=0;endFill=0;" parent="1" source="node5" target="node20" edge="1">
                    <mxGeometry width="50" height="50" relative="1" as="geometry">
                        <Array as="points">
                            <mxPoint x="1165" y="1780"/>
                            <mxPoint x="396" y="1780"/>
                        </Array>
                    </mxGeometry>
                </mxCell>
                <mxCell id="label42" value="1" style="edgeLabel;resizable=0;html=1;align=left;verticalAlign=top;strokeColor=default;" parent="edge7" vertex="1" connectable="0">
                    <mxGeometry x="1154" y="1045" as="geometry"/>
                </mxCell>
                <mxCell id="label47" value="" style="edgeLabel;resizable=0;html=1;align=left;verticalAlign=top;strokeColor=default;" parent="edge7" vertex="1" connectable="0">
                    <mxGeometry x="427" y="1736" as="geometry"/>
                </mxCell>
                <mxCell id="edge6" value="" style="html=1;rounded=1;edgeStyle=orthogonalEdgeStyle;dashed=0;startArrow=diamondThinstartSize=12;endArrow=none;endSize=12;strokeColor=#595959;endFill=0;" parent="1" edge="1">
                    <mxGeometry width="50" height="50" relative="1" as="geometry">
                        <Array as="points">
                            <mxPoint x="280" y="1080"/>
                            <mxPoint x="280" y="1866"/>
                            <mxPoint x="279" y="1866"/>
                        </Array>
                        <mxPoint x="279" y="1080" as="sourcePoint"/>
                        <mxPoint x="280" y="1870" as="targetPoint"/>
                    </mxGeometry>
                </mxCell>
                <mxCell id="label36" value="1" style="edgeLabel;resizable=0;html=1;align=left;verticalAlign=top;strokeColor=default;" parent="edge6" vertex="1" connectable="0">
                    <mxGeometry x="260" y="1080" as="geometry"/>
                </mxCell>
                <mxCell id="label40" value="1" style="edgeLabel;resizable=0;html=1;align=left;verticalAlign=top;strokeColor=default;" parent="edge6" vertex="1" connectable="0">
                    <mxGeometry x="350" y="1840" as="geometry"/>
                </mxCell>
                <mxCell id="edge9" value="" style="html=1;rounded=1;edgeStyle=orthogonalEdgeStyle;dashed=0;startArrow=diamondThinstartSize=12;endArrow=none;endSize=12;strokeColor=#595959;exitX=0.167;exitY=1.000;exitDx=0;exitDy=0;endFill=0;" parent="1" source="node18" edge="1">
                    <mxGeometry width="50" height="50" relative="1" as="geometry">
                        <Array as="points">
                            <mxPoint x="1524" y="1840"/>
                            <mxPoint x="440" y="1840"/>
                            <mxPoint x="440" y="1872"/>
                        </Array>
                        <mxPoint x="440" y="1870" as="targetPoint"/>
                    </mxGeometry>
                </mxCell>
                <mxCell id="label54" value="1" style="edgeLabel;resizable=0;html=1;align=left;verticalAlign=top;strokeColor=default;" parent="edge9" vertex="1" connectable="0">
                    <mxGeometry x="1512" y="1123" as="geometry"/>
                </mxCell>
                <mxCell id="label58" value="1" style="edgeLabel;resizable=0;html=1;align=left;verticalAlign=top;strokeColor=default;" parent="edge9" vertex="1" connectable="0">
                    <mxGeometry x="400" y="1840" as="geometry"/>
                </mxCell>
                <mxCell id="edge19" value="" style="html=1;rounded=1;edgeStyle=orthogonalEdgeStyle;dashed=0;startArrow=diamondThinstartSize=12;endArrow=none;endSize=12;strokeColor=#595959;exitX=0.500;exitY=0.000;exitDx=0;exitDy=0;entryX=0.75;entryY=0;entryDx=0;entryDy=0;endFill=0;" parent="1" source="node18" target="node21" edge="1">
                    <mxGeometry width="50" height="50" relative="1" as="geometry">
                        <Array as="points">
                            <mxPoint x="1631" y="240"/>
                            <mxPoint x="95" y="240"/>
                        </Array>
                        <mxPoint x="9" y="380" as="targetPoint"/>
                    </mxGeometry>
                </mxCell>
                <mxCell id="label114" value="1" style="edgeLabel;resizable=0;html=1;align=left;verticalAlign=top;strokeColor=default;" parent="edge19" vertex="1" connectable="0">
                    <mxGeometry x="1619" y="205" as="geometry">
                        <mxPoint x="24" y="41" as="offset"/>
                    </mxGeometry>
                </mxCell>
                <mxCell id="label118" value="1" style="edgeLabel;resizable=0;html=1;align=left;verticalAlign=top;strokeColor=default;" parent="edge19" vertex="1" connectable="0">
                    <mxGeometry x="109" y="600" as="geometry"/>
                </mxCell>
                <mxCell id="edge5" value="" style="html=1;rounded=1;edgeStyle=orthogonalEdgeStyle;dashed=0;startArrow=diamondThinstartSize=12;endArrow=none;endSize=12;strokeColor=#595959;exitX=0.250;exitY=1.000;exitDx=0;exitDy=0;entryX=0.5;entryY=0;entryDx=0;entryDy=0;endFill=0;" parent="1" source="node25" target="node20" edge="1">
                    <mxGeometry width="50" height="50" relative="1" as="geometry">
                        <Array as="points">
                            <mxPoint x="731" y="1720"/>
                            <mxPoint x="351" y="1720"/>
                        </Array>
                    </mxGeometry>
                </mxCell>
                <mxCell id="label30" value="1" style="edgeLabel;resizable=0;html=1;align=left;verticalAlign=top;strokeColor=default;" parent="edge5" vertex="1" connectable="0">
                    <mxGeometry x="719" y="1090" as="geometry"/>
                </mxCell>
                <mxCell id="label34" value="1" style="edgeLabel;resizable=0;html=1;align=left;verticalAlign=top;strokeColor=default;" parent="edge5" vertex="1" connectable="0">
                    <mxGeometry x="450" y="1840" as="geometry"/>
                </mxCell>
                <mxCell id="edge11" value="" style="html=1;rounded=1;edgeStyle=orthogonalEdgeStyle;dashed=0;startArrow=diamondThinstartSize=12;endArrow=none;endSize=12;strokeColor=#595959;entryX=0.5;entryY=0;entryDx=0;entryDy=0;endFill=0;exitX=1;exitY=0.028;exitDx=0;exitDy=0;exitPerimeter=0;" parent="1" source="node20" target="node12" edge="1">
                    <mxGeometry width="50" height="50" relative="1" as="geometry">
                        <Array as="points">
                            <mxPoint x="1210" y="1898"/>
                            <mxPoint x="1210" y="1930"/>
                        </Array>
                        <mxPoint x="480" y="1898" as="sourcePoint"/>
                    </mxGeometry>
                </mxCell>
                <mxCell id="label66" value="1" style="edgeLabel;resizable=0;html=1;align=left;verticalAlign=top;strokeColor=default;" parent="edge11" vertex="1" connectable="0">
                    <mxGeometry x="420" y="1840" as="geometry"/>
                </mxCell>
                <mxCell id="label70" value="*" style="edgeLabel;resizable=0;html=1;align=left;verticalAlign=top;strokeColor=default;" parent="edge11" vertex="1" connectable="0">
                    <mxGeometry x="1220" y="1910" as="geometry"/>
                </mxCell>
                <mxCell id="edge10" value="" style="html=1;rounded=1;edgeStyle=orthogonalEdgeStyle;dashed=0;startArrow=diamondThinstartSize=12;endArrow=none;endSize=12;strokeColor=#595959;endFill=0;" parent="1" edge="1">
                    <mxGeometry width="50" height="50" relative="1" as="geometry">
                        <Array as="points">
                            <mxPoint x="240" y="2936"/>
                            <mxPoint x="124" y="2936"/>
                        </Array>
                        <mxPoint x="240" y="2882" as="sourcePoint"/>
                        <mxPoint x="124" y="2710" as="targetPoint"/>
                    </mxGeometry>
                </mxCell>
                <mxCell id="label60" value="1" style="edgeLabel;resizable=0;html=1;align=left;verticalAlign=top;strokeColor=default;" parent="edge10" vertex="1" connectable="0">
                    <mxGeometry x="220" y="2880" as="geometry"/>
                </mxCell>
                <mxCell id="label64" value="1" style="edgeLabel;resizable=0;html=1;align=left;verticalAlign=top;strokeColor=default;" parent="edge10" vertex="1" connectable="0">
                    <mxGeometry x="100" y="2710" as="geometry"/>
                </mxCell>
                <mxCell id="edge12" value="" style="html=1;rounded=1;edgeStyle=orthogonalEdgeStyle;dashed=0;startArrow=diamondThinstartSize=12;endArrow=none;endSize=12;strokeColor=#595959;endFill=0;" parent="1" source="node20" edge="1">
                    <mxGeometry width="50" height="50" relative="1" as="geometry">
                        <Array as="points">
                            <mxPoint x="310" y="2900"/>
                            <mxPoint x="310" y="2900"/>
                        </Array>
                        <mxPoint x="310" y="3070" as="targetPoint"/>
                    </mxGeometry>
                </mxCell>
                <mxCell id="label72" value="1" style="edgeLabel;resizable=0;html=1;align=left;verticalAlign=top;strokeColor=default;" parent="edge12" vertex="1" connectable="0">
                    <mxGeometry x="320" y="2880" as="geometry"/>
                </mxCell>
                <mxCell id="label76" value="1" style="edgeLabel;resizable=0;html=1;align=left;verticalAlign=top;strokeColor=default;" parent="edge12" vertex="1" connectable="0">
                    <mxGeometry x="320" y="3050" as="geometry"/>
                </mxCell>
                <mxCell id="edge27" value="" style="html=1;rounded=1;edgeStyle=orthogonalEdgeStyle;dashed=0;startArrow=diamondThinstartSize=12;endArrow=none;endSize=12;strokeColor=#595959;exitX=0.750;exitY=0.000;exitDx=0;exitDy=0;entryX=0.500;entryY=1.000;entryDx=0;entryDy=0;endFill=0;" parent="1" source="node20" target="node19" edge="1">
                    <mxGeometry width="50" height="50" relative="1" as="geometry">
                        <Array as="points">
                            <mxPoint x="412" y="1810"/>
                            <mxPoint x="1410" y="1810"/>
                        </Array>
                    </mxGeometry>
                </mxCell>
                <mxCell id="label162" value="1" style="edgeLabel;resizable=0;html=1;align=left;verticalAlign=top;strokeColor=default;" parent="edge27" vertex="1" connectable="0">
                    <mxGeometry x="380" y="1840" as="geometry"/>
                </mxCell>
                <mxCell id="label166" value="1" style="edgeLabel;resizable=0;html=1;align=left;verticalAlign=top;strokeColor=default;" parent="edge27" vertex="1" connectable="0">
                    <mxGeometry x="1399" y="1551" as="geometry"/>
                </mxCell>
                <mxCell id="edge0" value="" style="html=1;rounded=1;edgeStyle=orthogonalEdgeStyle;dashed=0;startArrow=none;endArrow=block;endSize=12;strokeColor=#000082;exitX=0.750;exitY=0.000;exitDx=0;exitDy=0;endFill=0;" parent="1" source="node14" target="node18" edge="1">
                    <mxGeometry width="50" height="50" relative="1" as="geometry">
                        <Array as="points">
                            <mxPoint x="768" y="2376"/>
                            <mxPoint x="1680" y="2376"/>
                        </Array>
                        <mxPoint x="1670" y="1120" as="targetPoint"/>
                    </mxGeometry>
                </mxCell>
                <mxCell id="edge21" value="" style="html=1;rounded=1;edgeStyle=orthogonalEdgeStyle;dashed=0;startArrow=diamondThinstartSize=12;endArrow=none;endSize=12;strokeColor=#595959;entryX=0.750;entryY=1.000;entryDx=0;entryDy=0;endFill=0;exitX=0.25;exitY=1;exitDx=0;exitDy=0;" parent="1" edge="1">
                    <mxGeometry width="50" height="50" relative="1" as="geometry">
                        <Array as="points">
                            <mxPoint x="651" y="2940"/>
                            <mxPoint x="420" y="2940"/>
                        </Array>
                        <mxPoint x="650.4999999999995" y="2915" as="sourcePoint"/>
                        <mxPoint x="420" y="2882" as="targetPoint"/>
                    </mxGeometry>
                </mxCell>
                <mxCell id="label126" value="1" style="edgeLabel;resizable=0;html=1;align=left;verticalAlign=top;strokeColor=default;" parent="edge21" vertex="1" connectable="0">
                    <mxGeometry x="660" y="2920" as="geometry"/>
                </mxCell>
                <mxCell id="label130" value="1" style="edgeLabel;resizable=0;html=1;align=left;verticalAlign=top;strokeColor=default;" parent="edge21" vertex="1" connectable="0">
                    <mxGeometry x="390" y="2880" as="geometry"/>
                </mxCell>
                <mxCell id="edge2" value="" style="html=1;rounded=1;edgeStyle=orthogonalEdgeStyle;dashed=0;startArrow=none;endArrow=block;endSize=12;entryX=1;entryY=0.25;entryDx=0;entryDy=0;exitX=0;exitY=0.5;exitDx=0;exitDy=0;endFill=0;strokeColor=#006600;" parent="1" source="node23" target="node12" edge="1">
                    <mxGeometry width="50" height="50" relative="1" as="geometry">
                        <Array as="points">
                            <mxPoint x="1450" y="2014"/>
                        </Array>
                        <mxPoint x="1470" y="2014" as="sourcePoint"/>
                    </mxGeometry>
                </mxCell>
                <mxCell id="edge4" value="" style="html=1;rounded=1;edgeStyle=orthogonalEdgeStyle;dashed=0;startArrow=none;endArrow=block;endSize=12;strokeColor=#000082;exitX=0.833;exitY=0.000;exitDx=0;exitDy=0;endFill=0;entryX=0.75;entryY=1;entryDx=0;entryDy=0;" parent="1" source="node2" target="node18" edge="1">
                    <mxGeometry width="50" height="50" relative="1" as="geometry">
                        <Array as="points">
                            <mxPoint x="448" y="3030"/>
                            <mxPoint x="1710" y="3030"/>
                            <mxPoint x="1710" y="1170"/>
                            <mxPoint x="1711" y="1170"/>
                        </Array>
                        <mxPoint x="1720" y="1170" as="targetPoint"/>
                    </mxGeometry>
                </mxCell>
                <mxCell id="edge24" value="" style="html=1;rounded=1;edgeStyle=orthogonalEdgeStyle;dashed=0;startArrow=diamondThinstartSize=12;endArrow=none;endSize=12;strokeColor=#595959;exitX=0.167;exitY=0.000;exitDx=0;exitDy=0;entryX=0.500;entryY=1.000;entryDx=0;entryDy=0;endFill=0;" parent="1" source="node2" target="node17" edge="1">
                    <mxGeometry width="50" height="50" relative="1" as="geometry">
                        <Array as="points">
                            <mxPoint x="266" y="3010"/>
                            <mxPoint x="54" y="3010"/>
                        </Array>
                    </mxGeometry>
                </mxCell>
                <mxCell id="label144" value="1" style="edgeLabel;resizable=0;html=1;align=left;verticalAlign=top;strokeColor=default;" parent="edge24" vertex="1" connectable="0">
                    <mxGeometry x="220" y="3050" as="geometry"/>
                </mxCell>
                <mxCell id="label148" value="1" style="edgeLabel;resizable=0;html=1;align=left;verticalAlign=top;strokeColor=default;" parent="edge24" vertex="1" connectable="0">
                    <mxGeometry x="159" y="3323" as="geometry">
                        <mxPoint x="112" y="-290" as="offset"/>
                    </mxGeometry>
                </mxCell>
                <mxCell id="edge16" value="" style="html=1;rounded=1;edgeStyle=orthogonalEdgeStyle;dashed=0;startArrow=diamondThinstartSize=12;endArrow=none;endSize=12;strokeColor=#595959;exitX=0.061;exitY=-0.002;exitDx=0;exitDy=0;exitPerimeter=0;endFill=0;entryX=0.25;entryY=0;entryDx=0;entryDy=0;" parent="1" source="node2" target="node21" edge="1">
                    <mxGeometry width="50" height="50" relative="1" as="geometry">
                        <Array as="points">
                            <mxPoint x="237" y="3040"/>
                            <mxPoint x="-170" y="3040"/>
                            <mxPoint x="-170" y="600"/>
                            <mxPoint x="-38" y="600"/>
                        </Array>
                        <mxPoint x="-50" y="390" as="targetPoint"/>
                    </mxGeometry>
                </mxCell>
                <mxCell id="label96" value="1" style="edgeLabel;resizable=0;html=1;align=left;verticalAlign=top;strokeColor=default;" parent="edge16" vertex="1" connectable="0">
                    <mxGeometry x="40" y="2710" as="geometry"/>
                </mxCell>
                <mxCell id="label100" value="1" style="edgeLabel;resizable=0;html=1;align=left;verticalAlign=top;strokeColor=default;" parent="edge16" vertex="1" connectable="0">
                    <mxGeometry x="-21" y="600" as="geometry"/>
                </mxCell>
                <mxCell id="edge3" value="" style="html=1;rounded=1;edgeStyle=orthogonalEdgeStyle;dashed=0;startArrow=none;endArrow=block;endSize=12;strokeColor=#006600;exitX=0;exitY=0.5;exitDx=0;exitDy=0;endFill=0;" parent="1" source="node0" target="node12" edge="1">
                    <mxGeometry width="50" height="50" relative="1" as="geometry">
                        <Array as="points">
                            <mxPoint x="1510" y="2097"/>
                        </Array>
                    </mxGeometry>
                </mxCell>
                <mxCell id="edge26" value="" style="html=1;rounded=1;edgeStyle=orthogonalEdgeStyle;dashed=0;startArrow=diamondThinstartSize=12;endArrow=none;endSize=12;strokeColor=#595959;exitX=0.250;exitY=1.000;exitDx=0;exitDy=0;entryX=0.619;entryY=-0.002;entryDx=0;entryDy=0;entryPerimeter=0;endFill=0;" parent="1" source="node11" target="node20" edge="1">
                    <mxGeometry width="50" height="50" relative="1" as="geometry">
                        <Array as="points">
                            <mxPoint x="947" y="1750"/>
                            <mxPoint x="380" y="1750"/>
                        </Array>
                    </mxGeometry>
                </mxCell>
                <mxCell id="label156" value="1" style="edgeLabel;resizable=0;html=1;align=left;verticalAlign=top;strokeColor=default;" parent="edge26" vertex="1" connectable="0">
                    <mxGeometry x="935" y="1575" as="geometry"/>
                </mxCell>
                <mxCell id="label160" value="1" style="edgeLabel;resizable=0;html=1;align=left;verticalAlign=top;strokeColor=default;" parent="edge26" vertex="1" connectable="0">
                    <mxGeometry x="320" y="1840" as="geometry"/>
                </mxCell>
                <mxCell id="edge14" value="" style="html=1;rounded=1;edgeStyle=orthogonalEdgeStyle;dashed=0;startArrow=diamondThinstartSize=12;endArrow=none;endSize=12;strokeColor=#595959;exitX=0.500;exitY=0.000;exitDx=0;exitDy=0;entryX=0.500;entryY=1.000;entryDx=0;entryDy=0;endFill=0;" parent="1" source="node11" target="node15" edge="1">
                    <mxGeometry width="50" height="50" relative="1" as="geometry">
                        <Array as="points"/>
                    </mxGeometry>
                </mxCell>
                <mxCell id="label84" value="1" style="edgeLabel;resizable=0;html=1;align=left;verticalAlign=top;strokeColor=default;" parent="edge14" vertex="1" connectable="0">
                    <mxGeometry x="999" y="1238" as="geometry"/>
                </mxCell>
                <mxCell id="label88" value="*" style="edgeLabel;resizable=0;html=1;align=left;verticalAlign=top;strokeColor=default;" parent="edge14" vertex="1" connectable="0">
                    <mxGeometry x="1000" y="758" as="geometry"/>
                </mxCell>
                <mxCell id="edge8" value="" style="html=1;rounded=1;edgeStyle=orthogonalEdgeStyle;dashed=0;startArrow=diamondThinstartSize=12;endArrow=none;endSize=12;strokeColor=#595959;exitX=0.536;exitY=0.999;exitDx=0;exitDy=0;entryX=0.137;entryY=0;entryDx=0;entryDy=0;exitPerimeter=0;entryPerimeter=0;endFill=0;" parent="1" source="node22" target="node20" edge="1">
                    <mxGeometry width="50" height="50" relative="1" as="geometry">
                        <Array as="points">
                            <mxPoint x="40" y="1756"/>
                            <mxPoint x="260" y="1756"/>
                            <mxPoint x="260" y="1870"/>
                        </Array>
                    </mxGeometry>
                </mxCell>
                <mxCell id="label48" value="1" style="edgeLabel;resizable=0;html=1;align=left;verticalAlign=top;strokeColor=default;" parent="edge8" vertex="1" connectable="0">
                    <mxGeometry x="23" y="1696" as="geometry"/>
                </mxCell>
                <mxCell id="label52" value="1" style="edgeLabel;resizable=0;html=1;align=left;verticalAlign=top;strokeColor=default;" parent="edge8" vertex="1" connectable="0">
                    <mxGeometry x="260" y="1840" as="geometry"/>
                </mxCell>
                <mxCell id="edge18" value="" style="html=1;rounded=1;edgeStyle=orthogonalEdgeStyle;dashed=0;startArrow=diamondThinstartSize=12;endArrow=none;endSize=12;strokeColor=#595959;exitX=0.384;exitY=1;exitDx=0;exitDy=0;endFill=0;entryX=0.25;entryY=0;entryDx=0;entryDy=0;exitPerimeter=0;" parent="1" source="node22" target="node17" edge="1">
                    <mxGeometry width="50" height="50" relative="1" as="geometry">
                        <Array as="points">
                            <mxPoint y="2430"/>
                        </Array>
                    </mxGeometry>
                </mxCell>
                <mxCell id="label108" value="1" style="edgeLabel;resizable=0;html=1;align=left;verticalAlign=top;strokeColor=default;" parent="edge18" vertex="1" connectable="0">
                    <mxGeometry x="-20" y="1690" as="geometry"/>
                </mxCell>
                <mxCell id="label112" value="1" style="edgeLabel;resizable=0;html=1;align=left;verticalAlign=top;strokeColor=default;" parent="edge18" vertex="1" connectable="0">
                    <mxGeometry x="-20" y="2400" as="geometry"/>
                </mxCell>
                <mxCell id="edge28" value="" style="html=1;rounded=1;edgeStyle=orthogonalEdgeStyle;dashed=0;startArrow=diamondThinstartSize=12;endArrow=none;endSize=12;strokeColor=#595959;entryX=0.407;entryY=0.001;entryDx=0;entryDy=0;entryPerimeter=0;endFill=0;" parent="1" target="node20" edge="1">
                    <mxGeometry width="50" height="50" relative="1" as="geometry">
                        <Array as="points">
                            <mxPoint x="330" y="1871"/>
                        </Array>
                        <mxPoint x="330" y="1517" as="sourcePoint"/>
                    </mxGeometry>
                </mxCell>
                <mxCell id="label168" value="1" style="edgeLabel;resizable=0;html=1;align=left;verticalAlign=top;strokeColor=default;" parent="edge28" vertex="1" connectable="0">
                    <mxGeometry x="457" y="1491" as="geometry">
                        <mxPoint x="-123" y="30" as="offset"/>
                    </mxGeometry>
                </mxCell>
                <mxCell id="label172" value="1" style="edgeLabel;resizable=0;html=1;align=left;verticalAlign=top;strokeColor=default;" parent="edge28" vertex="1" connectable="0">
                    <mxGeometry x="230" y="1840" as="geometry"/>
                </mxCell>
                <mxCell id="edge29" value="" style="html=1;rounded=1;edgeStyle=orthogonalEdgeStyle;dashed=0;startArrow=diamondThinstartSize=12;endArrow=none;endSize=12;strokeColor=#595959;exitX=0.250;exitY=1.000;exitDx=0;exitDy=0;entryX=0.058;entryY=0;entryDx=0;entryDy=0;entryPerimeter=0;endFill=0;" parent="1" source="node21" target="node20" edge="1">
                    <mxGeometry width="50" height="50" relative="1" as="geometry">
                        <Array as="points">
                            <mxPoint x="-38" y="850"/>
                            <mxPoint x="-130" y="850"/>
                            <mxPoint x="-130" y="1800"/>
                            <mxPoint x="241" y="1800"/>
                        </Array>
                    </mxGeometry>
                </mxCell>
                <mxCell id="label174" value="1" style="edgeLabel;resizable=0;html=1;align=left;verticalAlign=top;strokeColor=default;" parent="edge29" vertex="1" connectable="0">
                    <mxGeometry x="-63" y="760" as="geometry"/>
                </mxCell>
                <mxCell id="label178" value="1" style="edgeLabel;resizable=0;html=1;align=left;verticalAlign=top;strokeColor=default;" parent="edge29" vertex="1" connectable="0">
                    <mxGeometry x="285" y="1840" as="geometry"/>
                </mxCell>
                <mxCell id="edge13" value="" style="html=1;rounded=1;edgeStyle=orthogonalEdgeStyle;dashed=0;startArrow=diamondThinstartSize=12;endArrow=none;endSize=12;strokeColor=#595959;entryX=0.615;entryY=1.001;entryDx=0;entryDy=0;entryPerimeter=0;endFill=0;exitX=0;exitY=0.5;exitDx=0;exitDy=0;" parent="1" source="node6" target="node20" edge="1">
                    <mxGeometry width="50" height="50" relative="1" as="geometry">
                        <Array as="points">
                            <mxPoint x="379" y="2964"/>
                        </Array>
                        <mxPoint x="1520" y="2996" as="sourcePoint"/>
                        <mxPoint x="440" y="2885" as="targetPoint"/>
                    </mxGeometry>
                </mxCell>
                <mxCell id="label78" value="1" style="edgeLabel;resizable=0;html=1;align=left;verticalAlign=top;strokeColor=default;" parent="edge13" vertex="1" connectable="0">
                    <mxGeometry x="1160" y="2960" as="geometry"/>
                </mxCell>
                <mxCell id="label82" value="1" style="edgeLabel;resizable=0;html=1;align=left;verticalAlign=top;strokeColor=default;" parent="edge13" vertex="1" connectable="0">
                    <mxGeometry x="440" y="2880" as="geometry"/>
                </mxCell>
                <mxCell id="edge1" value="" style="html=1;rounded=1;edgeStyle=orthogonalEdgeStyle;dashed=0;startArrow=none;endArrow=block;endSize=12;strokeColor=#006600;endFill=0;entryX=0.568;entryY=0.999;entryDx=0;entryDy=0;entryPerimeter=0;" parent="1" target="node12" edge="1">
                    <mxGeometry width="50" height="50" relative="1" as="geometry">
                        <Array as="points"/>
                        <mxPoint x="1230" y="2930" as="sourcePoint"/>
                        <mxPoint x="1230" y="2300" as="targetPoint"/>
                    </mxGeometry>
                </mxCell>
                <mxCell id="4" value="1" style="edgeLabel;resizable=0;html=1;align=left;verticalAlign=top;strokeColor=default;" parent="1" vertex="1" connectable="0">
                    <mxGeometry x="480" y="1900" as="geometry"/>
                </mxCell>
            </root>
        </mxGraphModel>
    </diagram>
</mxfile>